<?xml version="1.0" encoding="utf-8"?>
<!-- Uploaded to: SVG Repo, www.svgrepo.com, Generator: SVG Repo Mixer Tools -->
<svg width="800px" height="800px" viewBox="0 0 1024 1024" class="icon" version="1.1" xmlns="http://www.w3.org/2000/svg">
    <path d="M254.891132 361.477595c-50.265602 0-95.065705-23.214552-124.406162-59.461117 1.347433 15.831315 2.418417 57.629386 0 54.641688 5.445022 63.978498 59.015726 114.232838 124.406162 114.232838s118.960116-50.253316 124.406163-114.232838c-2.418417 2.987697-1.347433-38.810373 0-54.641688-29.340458 36.24554-74.14056 59.461116-124.406163 59.461117zM901.735806 306.547171c-31.1384 38.469419-72.721455 58.575456-126.069977 58.575455-53.346473 0-100.895708-24.637753-132.034108-63.107172 1.31774 15.490361 2.076439 57.206521 0 54.641688 5.778809 67.903051 62.634137 121.238261 132.034108 121.238262s126.256323-53.33521 132.035132-121.238262c-2.075416 2.564833-7.282896-34.619611-5.965155-50.109971z"
          fill="#74E8AE"/>
    <path d="M643.631721 302.015454c-31.139424 38.469419-78.688659 63.107172-132.03718 63.107172-53.346473 0-100.894684-24.637753-132.034108-63.107172 1.318764 15.490361 2.076439 57.206521 0 54.641688 5.779833 67.903051 62.634137 121.238261 132.034108 121.238262s126.256323-53.33521 132.03718-121.238262c-2.076439 2.564833-1.318764-39.151327 0-54.641688zM427.575536 638.014686c-11.599597 0-21.001936 9.402339-21.001936 21.001936v42.004896c0 11.598573 9.402339 21.001936 21.001936 21.001935s21.001936-9.404387 21.001935-21.001935V659.016622c0-11.599597-9.402339-21.001936-21.001935-21.001936zM595.595117 638.014686c-11.599597 0-21.001936 9.402339-21.001935 21.001936v42.004896c0 11.598573 9.402339 21.001936 21.001935 21.001935s21.001936-9.404387 21.001936-21.001935V659.016622c0-11.599597-9.402339-21.001936-21.001936-21.001936z"
          fill="#74E8AE"/>
    <path d="M923.941831 359.537332L856.114547 156.036028a62.92492 62.92492 0 0 0-59.766234-43.082023h-569.525973a62.92492 62.92492 0 0 0-59.766234 43.082023L99.227798 359.537332c-6.789384 20.335386-3.097253 42.240389 9.865136 58.587742 7.362759 9.284592 15.644968 17.530965 24.448333 25.043211v404.870879c0 34.744525 28.263331 63.006831 63.006832 63.006831h630.072408c34.744525 0 63.006831-28.263331 63.006831-63.006831V443.168285c8.802342-7.512247 17.084551-15.758619 24.448334-25.043211 12.963412-16.346329 16.655543-38.251332 9.866159-58.587742z m-784.882846 13.291055l67.827284-203.502328a21.007055 21.007055 0 0 1 19.936071-14.367158h569.525973a21.008079 21.008079 0 0 1 19.936071 14.367158l67.827283 203.502328c2.235142 6.726927 1.107844 14.080471-2.933431 19.187611-6.231366 7.854224-13.235766 14.850433-20.795111 21.03982l-4.391444 3.306125c-5.822836 4.384277-11.924168 8.225895-18.229254 11.585263-0.23447 0.12389-0.459725 0.264162-0.695219 0.387029a134.58563 134.58563 0 0 1-19.386244 8.311901c-0.530373 0.178156-1.082247 0.296927-1.613644 0.467915-5.630345 1.830707-11.401987 3.193498-17.244276 4.26653-1.618763 0.294879-3.234454 0.594877-4.867551 0.830371-6.479146 0.945046-13.027917 1.582927-19.677028 1.582927-43.472123 0-83.84085-21.0347-109.646856-56.305502v-106.51479c0-11.598573-9.394148-21.001936-21.002959-21.001936s-21.001936 9.404387-21.001936 21.001936v104.652343c-25.747644 36.418577-66.815685 58.167949-111.042411 58.167949-43.840722 0-84.555522-21.395108-110.345146-57.239285v-113.456733c0-11.598573-9.394148-21.001936-21.001936-21.001936-11.608812 0-21.001936 9.404387-21.001935 21.001936v113.459805c-25.772218 35.843154-66.485994 57.236214-110.345146 57.236213-6.650135 0-13.19993-0.638904-19.678052-1.582927-1.632073-0.235494-3.245716-0.535492-4.862431-0.830371-5.843314-1.073032-11.615979-2.435823-17.249396-4.26653-0.533444-0.170989-1.082247-0.290783-1.61262-0.467915a134.74638 134.74638 0 0 1-19.389316-8.313949c-0.230374-0.120818-0.452557-0.258019-0.681908-0.379862-6.308157-3.361416-12.413586-7.205081-18.238469-11.590382l-4.391444-3.306125c-7.559345-6.189387-14.563745-13.185595-20.795111-21.03982-4.040251-5.10714-5.168573-12.460684-2.932408-19.187611z m708.564481 97.125762v378.083991c0 11.578095-9.414626 21.001936-21.002959 21.001936H196.549122c-11.588334 0-21.001936-9.424864-21.001935-21.001936V469.954149c1.103748 0.502728 2.266882 0.847777 3.378821 1.326956 4.328987 1.850161 8.667189 3.658342 13.138497 5.158334 2.421489 0.820132 4.907482 1.418081 7.361735 2.130705 3.587694 1.0331 7.142624 2.146064 10.80199 2.953909 3.676772 0.818084 7.42624 1.32286 11.16035 1.904427 2.623194 0.406482 5.202361 0.974739 7.851153 1.263475 6.487337 0.713648 13.040203 1.105796 19.651431 1.105796 50.393588 0 97.771834-21.340842 131.347081-58.187403 33.595725 36.846561 80.973971 58.187403 131.347081 58.187403 50.393588 0 97.771834-21.340842 131.347082-58.177165 20.98453 23.023085 47.36084 39.991937 76.495496 49.48233a176.972435 176.972435 0 0 0 54.851585 8.694835c6.610204 0 13.164094-0.392148 19.651431-1.105796 2.649815-0.28976 5.228982-0.858016 7.851152-1.263475 3.73411-0.581567 7.483578-1.087366 11.16035-1.904427 3.659366-0.807846 7.214296-1.919785 10.801991-2.953909 2.455277-0.712624 4.940247-1.310573 7.361735-2.130705 4.471307-1.499992 8.809509-3.308173 13.138497-5.158334 1.112963-0.479178 2.275073-0.824228 3.378821-1.326956z"
          fill="#22C67F"/>
</svg>
